<?xml version="1.0" encoding="UTF-8" standalone="no"?>
<!-- Created with Inkscape (http://www.inkscape.org/) -->

<svg
   xmlns:dc="http://purl.org/dc/elements/1.1/"
   xmlns:cc="http://creativecommons.org/ns#"
   xmlns:rdf="http://www.w3.org/1999/02/22-rdf-syntax-ns#"
   xmlns:svg="http://www.w3.org/2000/svg"
   xmlns="http://www.w3.org/2000/svg"
   xmlns:sodipodi="http://sodipodi.sourceforge.net/DTD/sodipodi-0.dtd"
   xmlns:inkscape="http://www.inkscape.org/namespaces/inkscape"
   width="198.60001"
   height="198.60001"
   viewBox="0 0 52.546252 52.546252"
   version="1.1"
   id="svg3488"
   inkscape:version="0.92.0 r15299"
   sodipodi:docname="rrd.svg">
  <defs
     id="defs3482" />
  <sodipodi:namedview
     id="base"
     pagecolor="#ffffff"
     bordercolor="#666666"
     borderopacity="1.0"
     inkscape:pageopacity="0.0"
     inkscape:pageshadow="2"
     inkscape:zoom="2.7110884"
     inkscape:cx="98.300005"
     inkscape:cy="98.300005"
     inkscape:document-units="mm"
     inkscape:current-layer="layer1"
     showgrid="false"
     fit-margin-top="0"
     fit-margin-left="0"
     fit-margin-right="0"
     fit-margin-bottom="0"
     units="px"
     inkscape:window-width="1280"
     inkscape:window-height="744"
     inkscape:window-x="-4"
     inkscape:window-y="-4"
     inkscape:window-maximized="1" />
  <metadata
     id="metadata3485">
    <rdf:RDF>
      <cc:Work
         rdf:about="">
        <dc:format>image/svg+xml</dc:format>
        <dc:type
           rdf:resource="http://purl.org/dc/dcmitype/StillImage" />
        <dc:title></dc:title>
      </cc:Work>
    </rdf:RDF>
  </metadata>
  <g
     inkscape:label="Layer 1"
     inkscape:groupmode="layer"
     id="layer1"
     transform="translate(-64.705744,-126.83134)">
    <g
       id="g3506"
       transform="translate(0.264583,-0.26458636)">
      <circle
         style="fill:#1f2b4a;fill-opacity:1;stroke-width:0.26458332"
         id="circle3437"
         class="navy"
         r="26.008543"
         cy="153.36905"
         cx="90.714287" />
      <path
         style="fill:#ffffff;stroke-width:0.26458332"
         inkscape:connector-curvature="0"
         class="white"
         d="m 108.99699,141.67444 h -3.51895 c -0.0529,0 -0.10584,0.0529 -0.10584,0.10584 v 13.89062 c 0,3.09563 -2.48708,5.58271 -5.58271,5.58271 -0.449789,0 -0.899578,-0.0265 -1.322908,-0.10583 -0.0265,0 -0.0265,0 -0.0265,0 -0.0529,-0.0265 -0.132289,-0.0265 -0.185208,-0.0529 h -0.0265 c -0.0794,-0.0265 -0.132292,-0.0529 -0.185211,-0.0529 -0.3175,-0.10583 -0.687909,-0.23812 -1.03187,-0.42333 0,0 -0.0265,0 -0.0529,-0.0265 -0.105828,-0.0529 -0.449789,-0.23812 -0.873119,-0.52916 -0.21167,-0.15875 -0.423339,-0.34396 -0.661459,-0.55563 -0.0794,-0.0794 -0.185211,-0.0265 -0.211672,0.0529 l -0.926039,3.54541 c -0.0265,0.0794 0.0265,0.18521 0.0794,0.26459 0.23812,0.15875 0.449792,0.3175 0.635,0.39687 0.820201,0.47625 2.460623,1.19063 4.630201,1.19063 0.0529,0 0.0794,0 0.132299,0 2.116666,0 4.048126,-0.68792 5.582696,-1.85209 v 1.77271 c 0,0.0529 0.0529,0.10584 0.10585,0.10584 h 3.51895 c 0.0529,0 0.10583,-0.0529 0.10583,-0.10584 v -23.0981 c 0,-0.0529 -0.0265,-0.10584 -0.0794,-0.10584 z"
         id="path3439" />
      <path
         style="fill:#ffffff;stroke-width:0.26458332"
         inkscape:connector-curvature="0"
         class="white"
         d="m 86.454491,147.54819 c -0.79375,-0.47625 -2.43416,-1.19062 -4.6302,-1.19062 -0.0529,0 -0.0794,0 -0.1323,0 -2.11666,0 -4.04812,0.68792 -5.5827,1.85208 v -1.74625 c 0,-0.0529 -0.0529,-0.10583 -0.10584,-0.10583 h -3.51896 c -0.0794,-0.0265 -0.10583,0.0529 -0.10583,0.10583 v 18.46792 c 0,0.0529 0.0529,0.10583 0.10583,0.10583 h 3.51896 c 0.0529,0 0.10584,-0.0529 0.10584,-0.10583 v -9.26042 c 0,-3.09562 2.48708,-5.58271 5.5827,-5.58271 0.4498,0 0.89959,0.0265 1.32292,0.10584 0.0265,0 0.0265,0 0.0265,0 0.0529,0.0265 0.13229,0.0265 0.18521,0.0529 h 0.0265 c 0.0794,0.0265 0.13229,0.0529 0.1852,0.0529 0.3175,0.10583 0.68792,0.23813 1.03188,0.42333 0,0 0.0265,0 0.0529,0.0265 0.10583,0.0529 0.44979,0.23813 0.87312,0.52917 0.21167,0.15875 0.42333,0.34396 0.66146,0.55562 0.0794,0.0794 0.18521,0.0265 0.21167,-0.0529 l 0.89958,-3.59834 c 0.0265,-0.0794 -0.0265,-0.1852 -0.0794,-0.26458 -0.21166,-0.13229 -0.44979,-0.29104 -0.635,-0.37042 z"
         id="path3441" />
      <path
         style="fill:#ffffff;stroke-width:0.26458332"
         inkscape:connector-curvature="0"
         class="white"
         d="m 98.36074,150.08819 c 0.449803,0 0.899592,0.0265 1.322922,0.10584 0.0265,0 0.0265,0 0.0265,0 0.0529,0.0265 0.132292,0.0265 0.185211,0.0529 h 0.0265 c 0.0794,0.0265 0.132287,0.0529 0.185197,0.0529 0.3175,0.10583 0.68792,0.23813 1.03188,0.42333 0,0 0.0265,0 0.0529,0.0265 0.10583,0.0529 0.44979,0.23813 0.87312,0.52917 0.21167,0.15875 0.42333,0.34396 0.66146,0.55562 0.0794,0.0794 0.18521,0.0265 0.21167,-0.0529 l 0.92604,-3.54542 c 0.0265,-0.0794 -0.0265,-0.18521 -0.0794,-0.26458 -0.23812,-0.15875 -0.44978,-0.3175 -0.635,-0.39688 -0.79375,-0.44979 -2.43415,-1.16416 -4.630206,-1.16416 -0.0529,0 -0.0794,0 -0.132289,0 -2.116659,0 -4.04812,0.68791 -5.582711,1.85208 v -1.74625 c 0,-0.0529 -0.0529,-0.10583 -0.105828,-0.10583 h -3.545421 c -0.0529,0 -0.10583,0.0529 -0.10583,0.10583 v 18.46792 c 0,0.0529 0.0529,0.10583 0.10583,0.10583 h 3.51896 c 0.0529,0 0.105841,-0.0529 0.105841,-0.10583 v -9.31334 c -0.0265,-3.09562 2.487078,-5.58271 5.582698,-5.58271 z"
         id="path3443" />
    </g>
  </g>
</svg>
